<?xml version="1.0" encoding="utf-8"?>
<!-- Generator: Adobe Illustrator 23.0.2, SVG Export Plug-In . SVG Version: 6.00 Build 0)  -->
<svg version="1.1" id="Layer_1" xmlns="http://www.w3.org/2000/svg" xmlns:xlink="http://www.w3.org/1999/xlink" x="0px" y="0px"
	 viewBox="0 0 210.25 210.13" style="enable-background:new 0 0 210.25 210.13;" xml:space="preserve">
<style type="text/css">
	.st0{fill:#FFFFFF;}
</style>
<g>
	<path class="st0" d="M30.61,41.74c-1.54-1.47-3.04-2.8-4.39-4.26c-0.27-0.29-0.21-1.34,0.09-1.65c3.83-3.85,7.46-7.95,11.68-11.32
		c5.17-4.13,10.64-7.98,16.36-11.3c9.67-5.62,20.15-9.27,31.19-11.3c8.05-1.48,16.14-2.22,24.31-1.79
		c13.54,0.72,26.5,3.79,38.86,9.44c9.72,4.44,18.52,10.25,26.46,17.34c3.23,2.89,6.12,6.15,9.16,9.26c0.74,0.76,0.73,1.45-0.13,2.17
		c-0.96,0.81-1.99,1.6-2.73,2.59c-1.16,1.55-1.93,0.94-2.93-0.15c-6.47-7.08-13.53-13.46-21.74-18.51
		c-11.16-6.86-23.14-11.51-36.09-13.61c-11.5-1.86-23.01-1.68-34.42,0.54C76.08,11.18,66.4,14.79,57.3,19.97
		c-9.53,5.42-17.97,12.13-25.21,20.36C31.72,40.75,31.27,41.12,30.61,41.74z M48.47,21.19c0.09,0.15,0.17,0.3,0.26,0.45
		c0.73-0.43,1.46-0.88,2.2-1.3c1.52-0.86,3.07-1.68,4.56-2.59c0.25-0.15,0.31-0.63,0.46-0.96c-0.35-0.09-0.79-0.36-1.04-0.24
		C52.5,17.73,50.21,19.09,48.47,21.19z M77.91,6.98c0.01,0.22,0.02,0.45,0.04,0.67c2.89,0.54,5.3-1.34,8.05-1.5
		c-0.06-0.27-0.11-0.55-0.17-0.82C83.19,5.88,80.55,6.43,77.91,6.98z M38.01,29.78c-1.62,0.66-3.61,0.98-3.39,3.85
		C35.91,32.16,36.96,30.97,38.01,29.78z"/>
	<path class="st0" d="M107.05,210.13c-10.98,0.04-19.92-1.15-28.74-3.48c-19.92-5.26-36.73-15.61-50.75-30.63
		c-1.07-1.14-1-1.84,0.08-2.78c0.99-0.86,1.95-1.77,2.84-2.73c0.82-0.9,1.36-0.77,2.2,0.07c3.2,3.19,6.33,6.48,9.77,9.4
		c7.29,6.17,15.37,11.12,24.16,14.91c9.34,4.03,19.06,6.67,29.17,7.49c8.87,0.72,17.73,0.54,26.56-1.1
		c8.57-1.59,16.8-4.15,24.63-7.88c8.72-4.15,16.71-9.46,23.79-16.07c2.58-2.41,5.05-4.96,7.48-7.53c0.74-0.78,1.09-0.69,1.75,0.03
		c1,1.1,2.05,2.16,3.2,3.1c1.04,0.85,0.87,1.62,0.1,2.42c-5.46,5.7-11.22,11.05-17.7,15.61c-9.11,6.41-18.95,11.3-29.6,14.57
		C125.96,208.59,115.7,210.21,107.05,210.13z M45.55,186.76c-0.17,0.25-0.35,0.51-0.52,0.76c3.27,2.49,6.46,5.09,10.66,6.08
		C52.79,190.56,49.13,188.72,45.55,186.76z"/>
	<path class="st0" d="M0.02,103.4c-0.25-8.49,1.45-18.37,4.22-28.05c2.4-8.39,6.03-16.31,10.46-23.84c1.29-2.2,1.36-2.19,3.15-0.47
		c0.82,0.8,1.55,1.71,2.46,2.39c1.1,0.83,0.94,1.62,0.33,2.64c-5.28,8.83-8.95,18.3-11.07,28.35c-2.7,12.77-2.89,25.57-0.54,38.45
		c1.73,9.5,4.97,18.45,9.23,27.06c0.96,1.94,2.11,3.8,3.25,5.65c0.53,0.86,0.67,1.46-0.24,2.18c-1.03,0.81-1.92,1.8-2.87,2.72
		c-1.54,1.5-1.79,1.55-2.82-0.4c-2.61-4.96-5.39-9.87-7.59-15.01C2.53,132.31-0.04,118.92,0.02,103.4z M6.16,84.46
		c-0.19-0.04-0.39-0.08-0.58-0.11c-0.32,1.21-0.65,2.42-1.06,3.97c0.84-0.6,1.32-0.95,1.87-1.35c-0.38-0.19-0.65-0.33-0.79-0.4
		C5.8,85.8,5.98,85.13,6.16,84.46z"/>
	<path class="st0" d="M193.72,161.28c-1.6-1.48-3.18-2.81-4.56-4.32c-0.36-0.4-0.35-1.55-0.04-2.07c5.4-8.96,9.08-18.56,11.4-28.75
		c2.02-8.86,2.7-17.81,2.15-26.83c-0.58-9.53-2.25-18.91-5.96-27.77c-2.16-5.15-4.69-10.15-6.99-15.25
		c-0.22-0.48-0.17-1.4,0.15-1.75c1.39-1.5,2.92-2.86,4.63-4.48c7.47,11.92,12.14,24.66,14.39,38.27
		C213.64,117.07,205.35,143.7,193.72,161.28z M206.04,120.14c-0.14,0.04-0.27,0.07-0.41,0.11c-0.63,1.77-1.39,3.52-1.87,5.33
		c-0.49,1.84-0.63,3.78-1.11,5.63c-0.27,1.04,0,1.46,0.88,1.64c0.62-2.16,1.36-4.26,1.79-6.42
		C205.72,124.36,205.81,122.24,206.04,120.14z M204.03,82.8c0.87-2.06-1.55-10.25-3.15-11.08C200.82,75.78,202.86,79.16,204.03,82.8
		z M202.38,132.9c-1.33,3.67-2.53,6.91-3.63,10.17c-0.13,0.39,0.23,0.96,0.36,1.44c0.17,0,0.35-0.01,0.52-0.01
		c1.12-3.41,2.26-6.8,3.33-10.23C203.05,133.99,202.67,133.56,202.38,132.9z"/>
	<path class="st0" d="M165.71,124.22c-0.83-2.74-1.57-5.38-2.47-7.97c-0.18-0.53-0.97-1.18-1.5-1.2c-2.63-0.11-5.27,0-7.91-0.02
		c-0.96-0.01-1.41,0.37-1.64,1.32c-0.52,2.11-1.21,4.18-1.74,6.29c-0.27,1.05-0.73,1.56-1.88,1.52c-2.1-0.07-4.2-0.02-6.58-0.02
		c0.29-1.29,0.46-2.28,0.75-3.23c3.01-9.73,6.04-19.46,9.05-29.19c0.97-3.15,0.96-3.15,4.29-3.15c1.89,0,3.79,0.03,5.68,0
		c0.97-0.01,1.59,0.28,1.89,1.31c1.89,6.3,3.83,12.59,5.76,18.88c1.43,4.65,2.82,9.31,4.33,13.94c0.41,1.26,0.08,1.54-1.09,1.53
		C170.37,124.2,168.08,124.22,165.71,124.22z M161.71,108.94c-1.34-4.86-2.58-9.36-3.83-13.86c-0.1-0.02-0.2-0.05-0.3-0.07
		c-1.23,4.57-2.46,9.14-3.76,13.93C156.53,108.94,158.95,108.94,161.71,108.94z M165.61,111.82c0.5,1.46,0.98,2.84,1.58,4.55
		c0.34-0.62,0.8-1.06,0.77-1.47c-0.15-2.22-0.95-4.22-2.37-6.45c-0.61,1.56-1.05,2.66-1.48,3.76c0.15,0.08,0.31,0.16,0.46,0.24
		C164.92,112.23,165.27,112.03,165.61,111.82z M164.49,102.73c-0.17,0.06-0.35,0.11-0.52,0.17c-0.12,0.42-0.42,0.87-0.33,1.24
		c0.3,1.31,0.7,2.59,1.14,3.86c0.07,0.19,0.59,0.41,0.79,0.33c0.22-0.09,0.46-0.54,0.41-0.78c-0.29-1.33-0.64-2.65-1.01-3.96
		C164.88,103.28,164.65,103.01,164.49,102.73z"/>
	<path class="st0" d="M128.35,95.13c-5.4,0-10.28,0-15.47,0c0-2.17-0.06-4.1,0.07-6.01c0.02-0.25,0.96-0.64,1.47-0.64
		c5.85-0.03,11.7,0.01,17.55,0.03c2.11,0.01,4.22,0,6.49,0c0.11,2.41,0.36,4.47-1.23,6.59c-3.93,5.25-7.53,10.75-11.27,16.14
		c-1.32,1.9-2.64,3.8-4.31,6.2c5.94,0,11.38,0,17.06,0c0,2.19,0.05,4.01-0.05,5.82c-0.02,0.29-0.66,0.79-1.01,0.79
		c-8.43,0-16.86-0.07-25.28-0.1c-0.95,0-1.34-0.38-1.3-1.34c0.07-1.91,0.44-3.57,1.67-5.24c4.04-5.47,7.82-11.13,11.7-16.71
		C125.63,98.95,126.85,97.25,128.35,95.13z M131.62,94.18c1.28,1.03-0.55,2.72-1.54,4.54c2-0.38,5.06-5.23,4.66-7
		c-0.81,0-1.64,0-2.46,0c0.22,0.23,0.43,0.45,0.65,0.68C132.5,92.98,132.07,93.56,131.62,94.18z"/>
	<path class="st0" d="M97.35,95.06c-1.73-0.08-3.37-0.2-5.01-0.22c-2.87-0.04-5.74-0.04-8.61,0c-1.07,0.02-1.59-0.29-1.51-1.46
		c0.09-1.2,0.06-2.41,0.01-3.61c-0.04-0.92,0.22-1.39,1.23-1.38c7.98,0.05,15.95,0.08,23.93,0.12c0.1,0,0.21,0.09,0.48,0.21
		c0,1.99,0.44,3.92-1.01,5.93c-5.23,7.28-10.25,14.7-15.57,22.38c0.83,0.16,1.44,0.38,2.04,0.38c4.3,0.05,8.61,0.11,12.91,0.07
		c1.37-0.01,2.01,0.33,1.87,1.83c-0.13,1.42-0.03,2.86-0.03,4.51c-0.69,0.05-1.29,0.14-1.89,0.14c-7.98-0.02-15.95-0.08-23.93-0.04
		c-1.39,0.01-1.79-0.46-1.76-1.78c0.03-1.58,0.27-2.93,1.26-4.31c5.25-7.35,10.37-14.8,15.53-22.22
		C97.33,95.54,97.32,95.47,97.35,95.06z M99.56,91.99c1.99,3.64,0.76,6.34-1.85,8.75c-0.34,0.31-0.25,1.08-0.36,1.64
		c0.18,0.05,0.37,0.09,0.55,0.14c2.19-3.28,4.87-6.27,6.24-10.12C102.45,92.25,101.21,92.14,99.56,91.99z"/>
	<path class="st0" d="M44.76,111.06c0,3.65,0.02,7.07-0.01,10.49c-0.02,2.25-0.04,2.25-2.28,2.24c-1.66-0.01-3.32,0-5.24,0
		c-0.08-0.61-0.23-1.19-0.22-1.76c0.02-10.55,0.07-21.09,0.06-31.64c0-1.38,0.43-1.96,1.84-1.97c4.23-0.03,8.5-0.51,12.7-0.15
		c10.59,0.91,13.22,10.52,8.94,17.43c-2.41,3.89-6.52,4.99-10.82,5.34C48.21,111.16,46.67,111.06,44.76,111.06z M44.96,104.97
		c1.69,0,3.13,0.16,4.52-0.04c2.44-0.34,4.25-1.59,4.92-4.13c0.58-2.19,0.17-4.15-1.61-5.57c-2.15-1.72-4.73-1.37-7.23-1.11
		c-0.23,0.02-0.57,0.57-0.57,0.87C44.94,98.25,44.96,101.5,44.96,104.97z M56.56,94.07c0.84,1.83,1.54,3.36,2.26,4.93
		c-0.23,0.24-0.86,0.59-0.91,1.01c-0.14,1.29-0.05,2.61-0.05,3.86c0.72-0.21,1.73-2.77,1.72-4.74
		C59.56,96.07,58.85,94.67,56.56,94.07z"/>
	<path class="st0" d="M48.76,69.94c-3.04,0.5-5.39,0.15-7.64-2.1c-6.26-6.27-12.79-12.26-19.22-18.36
		c-0.62-0.59-1.25-1.16-1.86-1.76c-1.84-1.81-1.84-1.82-0.27-3.88c0.96-1.26,1.94-2.52,3.06-3.97c2.59,2.51,5.03,4.9,7.5,7.25
		c5.64,5.37,11.26,10.75,16.96,16.05c1.12,1.04,1.62,2.09,1.48,3.58C48.68,67.76,48.76,68.8,48.76,69.94z M40.06,62.14
		c0.15-0.15,0.3-0.3,0.45-0.45c-1.04-1.27-2.09-2.53-3.16-3.83c-0.48,0.3-0.92,0.59-1.51,0.96C37.35,60.01,38.7,61.08,40.06,62.14z"
		/>
	<path class="st0" d="M192.3,46.53c-3.11,2.99-6.1,5.9-9.12,8.76c-4.92,4.68-9.86,9.33-14.8,13.99c-0.73,0.69-4.5,1.18-5.36,0.7
		c-0.14-0.08-0.27-0.21-0.36-0.34c-0.61-0.94-0.16-5.09,0.68-5.88c5.46-5.19,10.93-10.37,16.38-15.56c2.19-2.09,4.34-4.22,6.52-6.32
		c1.53-1.48,1.56-1.48,2.8,0.18C190.12,43.51,191.18,44.99,192.3,46.53z"/>
	<path class="st0" d="M48.76,142.33c0,1.6,0.1,3.04-0.05,4.46c-0.06,0.59-0.52,1.24-0.97,1.68c-6.18,5.94-12.4,11.85-18.6,17.76
		c-1.73,1.65-3.45,3.31-5.45,5.22c-1.46-1.88-2.87-3.58-4.1-5.4c-0.21-0.3,0.19-1.3,0.59-1.68c4.15-4.02,8.36-7.98,12.55-11.97
		c2.81-2.67,5.77-5.2,8.34-8.08C43.27,141.86,45.79,141.95,48.76,142.33z"/>
	<path class="st0" d="M75.64,106.22c0,5.33-0.03,10.66,0.03,15.99c0.01,1.28-0.4,1.74-1.67,1.67c-1.6-0.09-3.21-0.06-4.81-0.01
		c-0.99,0.03-1.46-0.23-1.45-1.33c0.06-10.94,0.08-21.89,0.09-32.83c0-0.95,0.32-1.36,1.28-1.34c1.72,0.03,3.44,0.04,5.16-0.02
		c1.14-0.04,1.46,0.46,1.45,1.54c-0.04,5.44-0.02,10.89-0.02,16.33C75.68,106.22,75.66,106.22,75.64,106.22z M70.86,103.89
		c2.19-1.79,2.41-3.8,0.52-5.83C71.22,99.87,71.06,101.68,70.86,103.89z M72.44,92.48c-1.75,1.31-1.77,2.16,0,4.14
		C72.44,95.12,72.44,93.83,72.44,92.48z M72.45,103.76c-1.45,2.36-1.43,4.04,0,4.66C72.45,106.94,72.45,105.51,72.45,103.76z"/>
	<path class="st0" d="M165.33,141.9c2.15-0.26,3.27,1.13,4.57,2.39c5.97,5.75,12.01,11.43,18.03,17.14c0.91,0.86,1.9,1.67,2.69,2.63
		c0.31,0.38,0.42,1.29,0.18,1.68c-0.92,1.44-2.06,2.74-3.05,4.13c-0.61,0.85-1.06,0.75-1.77,0.07
		c-7.49-7.14-15.01-14.24-22.51-21.37c-0.9-0.85-1.67-4.91-0.85-5.81C163.18,142.15,164.41,142.16,165.33,141.9z M180.65,160.07
		c0.09-0.24,0.3-0.54,0.23-0.62c-0.93-1.1-1.89-2.18-2.9-3.22c-0.06-0.06-0.79,0.28-0.86,0.53c-0.09,0.3,0.08,0.85,0.33,1.05
		C178.46,158.59,179.53,159.29,180.65,160.07z"/>
	<path class="st0" d="M87.88,40.02c-2.9-2.58-5.78-2.97-8.62,0.06c-0.1-0.16-0.19-0.33-0.29-0.49c0.08-0.8,0-1.66,0.27-2.39
		c0.67-1.78,0.11-3.07-1.27-4.2c-0.6-0.49-1.09-1.12-1.84-1.91c1.85-0.42,3.71-0.37,4.87-1.25c1.16-0.87,1.63-2.67,2.62-4.46
		c1.15,3.59,2.91,6.16,7.23,5.25c-0.02,0.21-0.05,0.41-0.07,0.62c-0.73,0.73-1.4,1.55-2.22,2.17c-1.12,0.85-1.36,1.84-0.96,3.14
		c0.28,0.91,0.39,1.87,0.58,2.81C88.08,39.59,87.98,39.8,87.88,40.02z"/>
	<path class="st0" d="M131.89,39.59c-1.45-0.64-2.89-1.79-4.34-1.78c-1.42,0.01-2.84,1.18-4.41,1.91c0.13-1.83,0.69-3.56,0.23-4.95
		c-0.46-1.36-1.95-2.38-3.48-4.1c4.39,0.64,6.61-1.31,7.73-5.08c1.15,3.74,3.37,5.7,7.51,5.42c-3.3,2.23-4.31,4.96-2.65,8.55
		C132.28,39.57,132.09,39.58,131.89,39.59z"/>
	<path class="st0" d="M185.54,99.06c0.73,3.93,3.04,5.66,7,5.14c-0.02,0.17-0.04,0.35-0.07,0.52c-0.65,0.66-1.24,1.39-1.96,1.95
		c-1.23,0.96-1.66,2.06-1.14,3.58c0.28,0.83,0.32,1.75,0.34,2.95c-3.01-2.27-5.93-2.51-9,0.07c0.98-3.61,0.62-6.52-2.99-8.34
		c0.11-0.16,0.22-0.33,0.33-0.49c1.19-0.21,2.36-0.51,3.56-0.6c1.06-0.08,1.62-0.48,1.96-1.51c0.33-1.02,0.93-1.95,1.41-2.91
		C185.16,99.3,185.35,99.18,185.54,99.06z"/>
	<path class="st0" d="M101.05,39.84c1.09-3.66,0.47-6.53-3.18-8.65c2.17-0.51,4.02-0.47,5.19-1.34c1.16-0.86,1.63-2.64,2.49-4.17
		c0.9,1.55,1.43,3.36,2.63,4.26c1.14,0.85,2.99,0.74,4.84,1.11c-1.26,1.34-2.84,2.33-3.31,3.71c-0.46,1.36,0.19,3.1,0.43,5.31
		C107.04,37.36,104.11,37.26,101.05,39.84z"/>
	<path class="st0" d="M29.71,104.54c-1.22,1.31-2.77,2.3-3.24,3.66c-0.47,1.36,0.12,3.09,0.27,4.88c-1.51-0.64-2.98-1.74-4.46-1.74
		c-1.45,0-2.9,1.12-4.95,2.01c1.76-3.83,0.74-6.59-2.57-8.76c3.88-0.07,6.42-1.55,7.6-5.31c0.35,0.66,0.76,1.3,1.04,1.99
		c0.65,1.64,1.53,2.86,3.57,2.79C27.84,104.01,28.73,104.35,29.71,104.54z"/>
	<g>
		<path class="st0" d="M89.95,185.19c-2.9-2.58-5.78-2.97-8.62,0.06c-0.1-0.16-0.19-0.33-0.29-0.49c0.08-0.8,0-1.66,0.27-2.39
			c0.67-1.78,0.11-3.07-1.27-4.2c-0.6-0.49-1.09-1.12-1.84-1.91c1.85-0.42,3.71-0.37,4.87-1.25c1.16-0.87,1.63-2.67,2.62-4.46
			c1.15,3.59,2.91,6.16,7.23,5.25c-0.02,0.21-0.05,0.41-0.07,0.62c-0.73,0.73-1.4,1.55-2.22,2.17c-1.12,0.85-1.36,1.84-0.96,3.14
			c0.28,0.91,0.39,1.87,0.58,2.81C90.16,184.76,90.05,184.97,89.95,185.19z"/>
		<path class="st0" d="M133.97,184.76c-1.45-0.64-2.89-1.79-4.34-1.78c-1.42,0.01-2.84,1.18-4.41,1.91
			c0.13-1.83,0.69-3.56,0.23-4.95c-0.46-1.36-1.95-2.38-3.48-4.1c4.39,0.64,6.61-1.31,7.73-5.08c1.15,3.74,3.37,5.7,7.51,5.42
			c-3.3,2.23-4.31,4.96-2.65,8.55C134.36,184.74,134.16,184.75,133.97,184.76z"/>
		<path class="st0" d="M103.12,185.01c1.09-3.66,0.47-6.53-3.18-8.65c2.17-0.51,4.02-0.47,5.19-1.34c1.16-0.86,1.63-2.64,2.49-4.17
			c0.9,1.55,1.43,3.36,2.63,4.26c1.14,0.85,2.99,0.74,4.84,1.11c-1.26,1.34-2.84,2.33-3.31,3.71c-0.46,1.36,0.19,3.1,0.43,5.31
			C109.12,182.53,106.19,182.43,103.12,185.01z"/>
	</g>
	<path class="st0" d="M52.36,139.88c0.01,7.23,0.06,14.46-0.02,21.69c-0.02,1.68,0.51,2.14,2.15,2.14
		c33.8-0.04,67.6-0.03,101.4-0.04c0.67,0,1.35-0.06,2.22-0.1c0-0.66,0-1.05,0-1.45c0-7.63,0.05-15.27-0.03-22.9
		c-0.02-1.56,0.47-2.06,1.95-1.89c0.91,0.1,1.83,0.03,2.75,0.03c9.3,0,18.59-0.03,27.89,0.02c1.44,0.01,1.96-0.46,1.85-1.88
		c-0.1-1.25-0.11-2.53-0.01-3.78c0.12-1.54-0.52-1.94-2-1.94c-51.53,0.03-103.06,0.01-154.59,0.01c-5.22,0-10.44,0.03-15.66-0.03
		c-1.43-0.02-1.97,0.44-1.85,1.88c0.1,1.2,0.11,2.42-0.01,3.61c-0.16,1.66,0.46,2.16,2.13,2.15c9.76-0.07,19.51-0.04,29.27-0.05
		C52.34,137.33,52.35,137.34,52.36,139.88"/>
	<path class="st0" d="M158.47,71.85c-0.01-7.23-0.06-14.46,0.02-21.69c0.02-1.68-0.51-2.14-2.15-2.14
		c-33.8,0.04-67.6,0.03-101.4,0.04c-0.67,0-1.35,0.06-2.22,0.1c0,0.66,0,1.05,0,1.45c0,7.63-0.05,15.27,0.03,22.9
		c0.02,1.56-0.47,2.06-1.95,1.89c-0.91-0.1-1.83-0.03-2.75-0.03c-9.3,0-18.59,0.03-27.89-0.02c-1.44-0.01-1.96,0.46-1.85,1.88
		c0.1,1.25,0.11,2.53,0.01,3.78c-0.12,1.54,0.52,1.94,2,1.94c51.53-0.03,103.06-0.01,154.59-0.01c5.22,0,10.44-0.03,15.66,0.03
		c1.43,0.02,1.97-0.44,1.85-1.88c-0.1-1.2-0.11-2.42,0.01-3.61c0.16-1.66-0.46-2.16-2.13-2.15c-9.76,0.07-19.51,0.04-29.27,0.05
		C158.48,74.39,158.47,74.39,158.47,71.85"/>
</g>
</svg>
